<svg id="Layer_1" data-name="Layer 1" xmlns="http://www.w3.org/2000/svg" viewBox="0 0 755.5 54.6"><defs><style>.cls-1{fill:#1c2b57;}</style></defs><title>RalphLauren</title><path class="cls-1" d="M13.5,2.2h7.4c8.9,0,11.7,5.7,11.7,11.1,0,7.6-4.7,12-14.3,12H13.6V2.2H13.5Zm6.2,51.2V51.7H13.6V26.5h0.3L34.3,53.4H47.1V51.7H43.2L24.1,26.5c11.6-.7,17.7-5.8,17.7-13.2C41.8,6.7,37.1.5,23.6,0.5H0V2.2H4.8V51.7H0v1.7H19.7Z"/><path class="cls-1" d="M85.2,8.1h0.2L93,30.5H77.2ZM77.4,53.4V51.7H69.7l7-19.6H93.6l6.6,19.6H94.3v1.7h17.8V51.7h-3.2L91.2,0H86.1L67.5,51.8H62.8v1.7H77.4V53.4Z"/><path class="cls-1" d="M146.6,51.7h11.9c5.3,0,6.8-.9,11.6-19.6h1.8V53.3H133.1V51.6h4.8V2.1h-4.8V0.4h21.5V2.1h-8V51.7Z"/><path class="cls-1" d="M210.8,2.2h8.3c8.4,0,11.8,5,11.8,12.1,0,9.1-3.9,11.7-12.6,11.7h-7.6V2.2h0.1Zm7.4,51.2V51.7h-7.4V27.6h9.7c13.2,0,19.6-5.3,19.6-13.3S233.2,0.5,220.4.5H197.3V2.2h4.8V51.7h-4.8v1.7h20.9Z"/><polygon class="cls-1" points="275.1 26.8 275.1 51.7 280.4 51.7 280.4 53.4 261.6 53.4 261.6 51.7 266.4 51.7 266.4 2.2 261.6 2.2 261.6 0.5 280.4 0.5 280.4 2.2 275.1 2.2 275.1 25.2 296.4 25.2 296.4 2.2 291.1 2.2 291.1 0.5 309.9 0.5 309.9 2.2 305.1 2.2 305.1 51.7 309.9 51.7 309.9 53.4 291.1 53.4 291.1 51.7 296.4 51.7 296.4 26.8 275.1 26.8"/><path class="cls-1" d="M396.4,51.7h11.9c5.3,0,6.8-.9,11.6-19.6h1.8V53.3H382.9V51.6h4.8V2.1h-4.8V0.4h21.5V2.1h-8V51.7Z"/><path class="cls-1" d="M463.6,8.1h0.2l7.6,22.4H455.6Zm-7.9,45.3V51.7H448l7-19.6h17l6.6,19.6h-5.9v1.7h17.8V51.7h-3.2L469.5,0h-5.1L445.8,51.8h-4.7v1.7h14.6V53.4Z"/><path class="cls-1" d="M529.8,0.5V2.2H524V40.6c0,9.3,5.5,12.3,10.6,12.3,7.6,0,13-4.9,13-12.8V2.3h-7.2V0.6h14.3V2.3h-4.8V40.2c0,8.8-6.2,14.4-15.6,14.4-13,0-19-5.2-19-15.7V2.3h-4.8V0.6h19.3V0.5Z"/><path class="cls-1" d="M590.7,2.2H598c8.9,0,11.7,5.7,11.7,11.1,0,7.6-4.7,12-14.2,12h-4.8V2.2Zm6.1,51.2V51.7h-6.1V26.5H591l20.4,26.9h12.8V51.7h-3.9L601.2,26.5c11.6-.7,17.7-5.8,17.7-13.2,0-6.6-4.7-12.8-18.2-12.8H577.3V2.2h4.8V51.7h-4.8v1.7h19.5Z"/><path class="cls-1" d="M642.9,53.4V51.7h4.8V2.2h-4.8V0.5h40.8v17h-1.8c-4.3-14.3-5.6-15.3-9.5-15.3H656.5V25.1h6.3c4,0,5.9-2.4,7.6-10.6h1.8V37.3h-1.8c-1.6-8.2-3.5-10.5-7.6-10.5h-6.3V51.7h14.1c5.7,0,7.4-2.1,12.2-17.9h1.8V53.3H642.9v0.1Z"/><polygon class="cls-1" points="716.4 3.8 716.3 3.8 716.3 51.7 723 51.7 723 53.4 708.7 53.4 708.7 51.7 714 51.7 714 2.2 708.7 2.2 708.7 0.5 724.2 0.5 747.8 38.7 747.9 38.7 747.9 2.2 741.5 2.2 741.5 0.5 755.5 0.5 755.5 2.2 750.2 2.2 750.2 53.4 747.4 53.4 716.4 3.8"/></svg>